<?xml version="1.0" standalone="no"?>
<!DOCTYPE svg PUBLIC "-//W3C//DTD SVG 20010904//EN"
 "http://www.w3.org/TR/2001/REC-SVG-20010904/DTD/svg10.dtd">
<svg version="1.0" xmlns="http://www.w3.org/2000/svg"
 width="375.000000pt" height="296.000000pt" viewBox="0 0 375.000000 296.000000"
 preserveAspectRatio="xMidYMid meet">

<g transform="translate(0.000000,296.000000) scale(0.100000,-0.100000)"
fill="#000000" stroke="none">
<path d="M0 1480 l0 -1480 1875 0 1875 0 0 1480 0 1480 -1875 0 -1875 0 0
-1480z m1850 973 c-8 -3 -35 -14 -60 -25 l-45 -19 27 -15 c15 -8 62 -19 104
-24 88 -11 140 -37 183 -90 29 -36 31 -37 73 -29 24 4 76 8 117 9 71 0 77 2
128 41 132 99 223 104 300 16 66 -75 66 -159 0 -233 -17 -20 -93 -88 -168
-150 l-136 -114 -5 -118 c-4 -83 -12 -135 -27 -181 -12 -35 -20 -65 -18 -67 8
-8 86 55 123 100 22 25 54 72 71 104 37 64 40 60 17 -19 -38 -129 -125 -258
-224 -333 -51 -39 -53 -39 -67 -20 -33 44 -34 51 -1 90 74 93 117 248 104 384
l-6 66 73 62 c39 34 110 95 157 135 131 112 156 182 93 266 -60 79 -138 78
-257 -2 l-81 -55 -130 -5 -130 -5 -27 39 c-36 50 -93 78 -175 86 -37 3 -78 12
-93 20 -55 29 -124 2 -153 -59 -9 -19 -25 -42 -37 -53 -20 -18 -21 -18 -35 1
-8 10 -15 22 -15 25 0 12 77 76 126 105 51 30 168 74 194 73 13 -1 13 -1 0 -6z
m58 -178 c34 -7 92 -57 92 -80 0 -7 -34 -29 -75 -48 -41 -20 -94 -49 -117 -65
-65 -44 -124 -72 -154 -72 -25 0 -26 1 -19 53 3 28 11 68 17 87 11 36 58 93
93 113 23 13 93 26 115 21 8 -1 30 -5 48 -9z m656 9 c23 -9 20 -34 -4 -34 -23
0 -24 -3 -8 -30 16 -25 -8 -53 -75 -86 l-47 -24 -36 35 c-20 20 -34 37 -32 39
1 1 29 21 60 44 78 57 108 69 142 56z m-507 -289 c63 -19 136 -82 168 -145 40
-78 51 -173 31 -261 -17 -75 -42 -133 -33 -76 7 42 -8 41 -28 -3 -18 -41 -124
-150 -145 -150 -6 0 -10 3 -8 8 2 4 12 24 23 45 16 32 17 40 6 47 -21 12 -37
3 -65 -40 -36 -54 -86 -110 -99 -110 -7 0 -7 4 1 12 21 21 13 27 -19 16 -16
-6 -32 -8 -35 -6 -2 3 1 25 7 50 16 58 8 80 -28 76 -25 -3 -29 -9 -41 -65 -12
-55 -17 -63 -36 -63 -46 0 -90 42 -111 105 -14 41 -28 63 -43 70 -21 9 -37 42
-45 95 l-4 25 -10 -25 c-10 -23 -11 -22 -18 23 -4 28 -3 66 4 92 16 62 15 63
-19 25 -28 -32 -30 -33 -24 -10 24 90 95 170 199 220 119 59 267 76 372 45z
m-662 -521 c42 -27 28 -77 -15 -54 -18 10 -20 9 -15 -12 3 -15 -3 -32 -15 -47
l-21 -24 -15 21 c-19 27 -39 29 -22 2 10 -16 9 -23 -12 -45 l-24 -25 -22 21
c-15 14 -31 20 -44 16 -19 -5 -21 -2 -18 26 2 25 10 35 35 47 18 8 33 21 33
27 0 20 47 45 70 38 14 -5 20 -2 20 9 0 21 34 21 65 0z m84 -163 c-14 -22 -79
-56 -79 -41 0 6 17 28 37 50 29 31 39 36 46 25 4 -8 2 -23 -4 -34z m-298 -32
c-13 -11 -27 -17 -30 -13 -3 3 5 14 18 25 13 11 27 17 30 13 3 -3 -5 -14 -18
-25z m-79 -34 c-2 -14 -8 -25 -13 -25 -10 0 -12 34 -2 43 13 14 20 6 15 -18z
m303 -45 c-3 -5 -10 -10 -16 -10 -5 0 -9 5 -9 10 0 6 7 10 16 10 8 0 12 -4 9
-10z m-80 -10 c-9 -14 19 -12 34 3 10 10 11 9 5 -6 -11 -29 -82 -37 -91 -10
-4 10 7 14 50 22 5 0 5 -3 2 -9z m1829 -269 c16 -25 -7 -40 -67 -43 -59 -3
-62 -4 -65 -30 -3 -28 -3 -28 58 -28 58 0 61 -1 58 -22 -3 -21 -9 -23 -69 -26
-62 -3 -67 -5 -71 -27 -7 -33 -3 -35 59 -35 46 0 53 -2 53 -20 0 -19 -7 -20
-90 -20 -105 0 -99 -9 -75 129 25 136 20 131 119 131 47 0 87 -4 90 -9z
m-2290 -23 c20 -28 21 -82 2 -97 -10 -8 -13 -23 -9 -45 5 -29 1 -37 -29 -60
-31 -23 -44 -26 -111 -26 -90 0 -86 -11 -57 140 11 58 20 106 20 107 0 2 38 3
84 3 76 0 86 -2 100 -22z m275 0 c0 -13 -10 -68 -22 -123 -22 -100 -22 -100
-54 -103 -29 -3 -32 -1 -30 25 2 26 -1 28 -36 31 -34 3 -39 0 -48 -27 -9 -25
-17 -31 -40 -31 -26 0 -28 3 -23 28 2 15 11 61 19 102 19 104 40 120 153 120
79 0 82 -1 81 -22z m111 10 c0 -7 -9 -51 -20 -98 -11 -47 -20 -88 -20 -92 0
-5 27 -8 60 -8 53 0 60 -2 60 -20 0 -19 -7 -20 -96 -20 -95 0 -96 0 -91 23 3
12 13 68 23 125 l17 102 34 0 c20 0 33 -5 33 -12z m225 -10 c-47 -204 -49
-188 26 -188 52 0 60 -2 57 -17 -3 -15 -17 -18 -96 -21 -72 -2 -92 0 -92 11 0
7 9 62 20 122 11 60 20 110 20 112 0 2 16 3 35 3 32 0 35 -2 30 -22z m457 -6
c18 -29 14 -75 -7 -92 -9 -7 -12 -23 -8 -44 5 -29 1 -37 -29 -60 -31 -23 -44
-26 -111 -26 -55 0 -77 4 -77 13 0 6 9 63 21 125 l21 112 87 0 c84 0 87 -1
103 -28z m246 2 c18 -25 18 -31 5 -98 -20 -98 -49 -126 -132 -126 -53 0 -62 3
-78 26 -18 25 -19 32 -7 102 19 104 36 122 125 122 61 0 69 -2 87 -26z m132
19 c0 -5 -9 -48 -20 -97 -11 -50 -20 -91 -20 -93 0 -2 20 -3 44 -3 l44 0 18
100 17 100 34 0 c18 0 33 -2 33 -5 0 -3 -9 -49 -21 -101 -26 -123 -45 -143
-135 -144 -56 0 -63 2 -79 27 -17 25 -17 31 0 125 l18 98 34 0 c18 0 33 -3 33
-7z m384 -18 c15 -23 14 -31 -5 -125 -21 -98 -22 -100 -50 -100 -34 0 -34 1
-14 107 8 43 15 81 15 86 0 4 -23 7 -51 7 -44 0 -50 -2 -45 -17 4 -9 -1 -54
-11 -100 -17 -80 -18 -83 -45 -83 -16 0 -28 5 -28 13 0 14 14 99 31 185 l10
52 89 0 c82 0 89 -2 104 -25z m238 0 c-4 -24 -8 -25 -67 -25 l-63 0 0 -34 c0
-19 -2 -42 -5 -52 -3 -11 -8 -29 -12 -41 -6 -22 -3 -23 44 -23 48 0 51 -2 51
-25 0 -24 -2 -25 -62 -25 -55 1 -65 4 -81 26 -17 22 -17 31 -5 101 7 42 21 86
31 99 17 22 26 24 96 24 78 0 78 0 73 -25z"/>
<path d="M1939 1944 c12 -15 21 -31 21 -37 0 -8 36 -92 45 -105 1 -1 21 15 43
35 23 21 38 43 34 48 -6 10 -44 29 -67 35 -5 1 -23 13 -38 26 -41 34 -65 32
-38 -2z"/>
<path d="M1733 1929 c9 -6 17 -22 17 -37 0 -24 4 -28 28 -27 23 0 27 -4 27
-30 0 -23 -5 -31 -21 -33 -16 -2 -25 4 -32 25 l-10 28 -1 -32 c-1 -26 -4 -31
-18 -26 -10 3 0 -11 23 -33 22 -21 46 -54 53 -71 14 -34 31 -44 31 -19 0 7 12
16 28 19 15 3 38 15 51 26 18 16 27 18 38 10 21 -18 16 5 -16 69 -34 68 -60
94 -121 121 -48 22 -112 30 -77 10z m91 -150 c-3 -5 -10 -7 -15 -3 -5 3 -7 10
-3 15 3 5 10 7 15 3 5 -3 7 -10 3 -15z"/>
<path d="M2095 1810 c-29 -11 -93 -85 -101 -115 -3 -14 -4 -44 0 -65 6 -39 6
-40 -24 -40 -16 0 -30 -4 -30 -10 0 -14 53 -13 68 2 7 7 9 27 6 52 -4 28 -1
47 9 61 15 20 16 19 22 -7 11 -42 40 -63 70 -50 27 12 65 79 65 113 0 12 8 28
18 35 16 11 15 13 -11 23 -33 13 -64 13 -92 1z m1 -75 c-7 -18 -26 -20 -26 -2
0 18 24 41 28 27 2 -6 1 -17 -2 -25z"/>
<path d="M1721 1696 c-13 -14 -39 -32 -57 -41 -41 -19 -44 -35 -6 -35 20 0 40
-12 67 -41 94 -97 196 -120 303 -70 29 14 52 29 52 34 0 5 -8 6 -17 1 -10 -4
-57 -9 -104 -12 -98 -4 -146 12 -193 69 -23 27 -26 37 -20 75 3 24 4 44 2 44
-3 0 -15 -11 -27 -24z"/>
<path d="M724 854 c3 -9 6 -20 6 -25 0 -6 19 -9 43 -7 35 2 43 7 45 26 3 20 0
22 -48 22 -43 0 -51 -3 -46 -16z"/>
<path d="M710 740 c0 -17 7 -20 45 -20 38 0 45 3 45 20 0 17 -7 20 -45 20 -38
0 -45 -3 -45 -20z"/>
<path d="M971 820 l-1 -50 39 0 c36 0 40 3 46 33 4 17 9 40 11 50 5 14 -2 17
-44 17 l-49 0 -2 -50z"/>
<path d="M1784 854 c3 -9 6 -20 6 -25 0 -5 20 -9 45 -9 41 0 45 2 45 25 0 23
-3 25 -51 25 -43 0 -50 -3 -45 -16z"/>
<path d="M1777 753 c-20 -19 -5 -33 38 -33 38 0 45 3 45 20 0 17 -7 20 -38 20
-21 0 -42 -3 -45 -7z"/>
<path d="M2033 843 c1 -16 -3 -49 -7 -75 l-8 -48 40 0 c44 0 46 2 57 75 4 22
9 48 12 58 4 14 -3 17 -45 17 -47 0 -49 -1 -49 -27z"/>
</g>
</svg>
